<?xml version="1.0" encoding="utf-8"?>
<!-- Generator: Adobe Illustrator 27.6.1, SVG Export Plug-In . SVG Version: 6.00 Build 0)  -->
<svg version="1.1" id="Capa_1" xmlns="http://www.w3.org/2000/svg" xmlns:xlink="http://www.w3.org/1999/xlink" x="0px" y="0px"
	 viewBox="0 0 16 16" style="enable-background:new 0 0 16 16;" xml:space="preserve">
<style type="text/css">
	.st0{fill:#FFFFFF;}
</style>
<path class="st0" d="M8,0C3.58,0,0,3.58,0,8s3.58,8,8,8s8-3.58,8-8S12.42,0,8,0z M11.5,7.5C11.78,7.5,12,7.72,12,8
	c0,0.28-0.22,0.5-0.5,0.5H5.71l2.15,2.15c0.2,0.2,0.2,0.51,0,0.71s-0.51,0.2-0.71,0l-3-3c-0.2-0.2-0.2-0.51,0-0.71c0,0,0,0,0,0l3-3
	c0.2-0.2,0.51-0.2,0.71,0s0.2,0.51,0,0.71L5.71,7.5H11.5z"/>
</svg>
