<?xml version="1.0" encoding="utf-8"?>
<!-- Generator: Adobe Illustrator 27.6.1, SVG Export Plug-In . SVG Version: 6.00 Build 0)  -->
<svg version="1.1" id="Capa_1" xmlns="http://www.w3.org/2000/svg" xmlns:xlink="http://www.w3.org/1999/xlink" x="0px" y="0px"
	 viewBox="0 0 64 64" style="enable-background:new 0 0 64 64;" xml:space="preserve">
<style type="text/css">
	.st0{fill:#FFFFFF;}
</style>
<g>
	<path class="st0" d="M4.95,11.7c0.76,0,1.48-0.38,1.9-1.01C9.29,7,13.48,4.57,18.22,4.57h27.55c4.74,0,8.93,2.43,11.38,6.11
		c0.42,0.63,1.14,1.01,1.9,1.01l0,0c1.83,0,2.92-2.04,1.9-3.56C57.69,3.23,52.11,0,45.78,0H18.22C11.89,0,6.31,3.23,3.05,8.13
		C2.03,9.66,3.12,11.7,4.95,11.7L4.95,11.7z"/>
	<path class="st0" d="M59.05,52.3c-0.76,0-1.48,0.38-1.9,1.01c-2.45,3.68-6.63,6.11-11.38,6.11H18.22c-4.74,0-8.93-2.43-11.38-6.11
		c-0.42-0.63-1.14-1.01-1.9-1.01l0,0c-1.83,0-2.92,2.04-1.9,3.56C6.31,60.77,11.89,64,18.22,64h27.55c6.33,0,11.91-3.23,15.18-8.13
		C61.97,54.34,60.88,52.3,59.05,52.3L59.05,52.3z"/>
	<g>
		<path class="st0" d="M9.83,42.89c-1.3-1.27-1.95-2.99-1.95-5.13V26.17c0-2.12,0.65-3.81,1.95-5.08c1.3-1.26,3.02-1.89,5.17-1.89
			c2.17,0,3.9,0.63,5.2,1.89c1.3,1.26,1.95,2.96,1.95,5.08v0.39c0,0.12-0.04,0.22-0.13,0.3c-0.08,0.08-0.19,0.13-0.3,0.13
			l-4.18,0.18c-0.29,0-0.43-0.13-0.43-0.39v-0.93c0-0.69-0.19-1.25-0.57-1.68s-0.89-0.64-1.54-0.64c-0.62,0-1.12,0.21-1.5,0.64
			s-0.57,0.99-0.57,1.68v12.34c0,0.69,0.19,1.25,0.57,1.66c0.38,0.42,0.88,0.63,1.5,0.63c0.64,0,1.16-0.21,1.54-0.63
			c0.38-0.42,0.57-0.97,0.57-1.66v-0.97c0-0.12,0.04-0.22,0.13-0.3c0.08-0.08,0.18-0.13,0.3-0.13l4.18,0.18
			c0.12,0,0.22,0.04,0.3,0.13c0.08,0.08,0.13,0.19,0.13,0.3v0.36c0,2.15-0.66,3.86-1.97,5.13c-1.31,1.28-3.04,1.91-5.18,1.91
			S11.13,44.16,9.83,42.89z"/>
		<path class="st0" d="M37.2,42.73c-1.34,1.19-3.06,1.79-5.18,1.79h-6.76c-0.12,0-0.22-0.04-0.3-0.13c-0.08-0.08-0.13-0.18-0.13-0.3
			V19.91c0-0.12,0.04-0.22,0.13-0.3c0.08-0.08,0.18-0.13,0.3-0.13h5.97c2.38,0,4.25,0.57,5.6,1.72c1.35,1.14,2.02,2.85,2.02,5.11
			c0,2.36-0.81,4.08-2.43,5.15c-0.1,0.07-0.11,0.14-0.04,0.21c1.88,1.34,2.82,3.31,2.82,5.94C39.2,39.83,38.54,41.54,37.2,42.73z
			 M29.87,23.99v5.61c0,0.12,0.06,0.18,0.18,0.18h1.29c0.81,0,1.44-0.26,1.89-0.77s0.68-1.23,0.68-2.16c0-0.98-0.22-1.73-0.66-2.25
			s-1.08-0.79-1.91-0.79h-1.29C29.93,23.81,29.87,23.87,29.87,23.99z M33.48,39.29c0.45-0.57,0.68-1.38,0.68-2.43
			s-0.23-1.88-0.68-2.5s-1.06-0.93-1.82-0.93h-1.61c-0.12,0-0.18,0.06-0.18,0.18v6.36c0,0.12,0.06,0.18,0.18,0.18h1.57
			C32.41,40.15,33.03,39.87,33.48,39.29z"/>
		<path class="st0" d="M50.97,44.12l-0.57-3.43c0-0.12-0.07-0.18-0.21-0.18h-4.54c-0.14,0-0.21,0.06-0.21,0.18l-0.57,3.43
			c-0.02,0.26-0.18,0.39-0.46,0.39h-4.18c-0.31,0-0.43-0.15-0.36-0.46l5.26-24.17c0.05-0.26,0.2-0.39,0.46-0.39h4.83
			c0.26,0,0.42,0.13,0.46,0.39l5.22,24.17l0.04,0.14c0,0.21-0.13,0.32-0.39,0.32h-4.29C51.15,44.51,50.99,44.38,50.97,44.12z
			 M46.28,36.61h3.22c0.12,0,0.17-0.06,0.14-0.18l-1.68-9.76c-0.02-0.07-0.06-0.11-0.11-0.11s-0.08,0.04-0.11,0.11l-1.61,9.76
			C46.14,36.55,46.19,36.61,46.28,36.61z"/>
	</g>
</g>
</svg>
