<?xml version="1.0" encoding="utf-8"?>
<!-- Generator: Adobe Illustrator 27.6.1, SVG Export Plug-In . SVG Version: 6.00 Build 0)  -->
<svg version="1.1" id="Capa_3" xmlns="http://www.w3.org/2000/svg" xmlns:xlink="http://www.w3.org/1999/xlink" x="0px" y="0px"
	 viewBox="0 0 64 64" style="enable-background:new 0 0 64 64;" xml:space="preserve">
<g>
	<path d="M4.95,11.7c0.76,0,1.48-0.38,1.9-1.01C9.29,7,13.48,4.57,18.22,4.57h27.55c4.74,0,8.93,2.43,11.38,6.11
		c0.42,0.63,1.14,1.01,1.9,1.01l0,0c1.83,0,2.92-2.04,1.9-3.56C57.69,3.23,52.11,0,45.78,0H18.22C11.89,0,6.31,3.23,3.05,8.13
		C2.03,9.66,3.12,11.7,4.95,11.7L4.95,11.7z"/>
	<path d="M59.05,52.3c-0.76,0-1.48,0.38-1.9,1.01c-2.45,3.68-6.63,6.11-11.38,6.11H18.22c-4.74,0-8.93-2.43-11.38-6.11
		c-0.42-0.63-1.14-1.01-1.9-1.01l0,0c-1.83,0-2.92,2.04-1.9,3.56C6.31,60.77,11.89,64,18.22,64h27.55c6.33,0,11.91-3.23,15.18-8.13
		C61.97,54.34,60.88,52.3,59.05,52.3L59.05,52.3z"/>
	<g>
		<path d="M17.77,44.16l-2.75-9.87c-0.05-0.09-0.11-0.14-0.18-0.14h-1.21c-0.12,0-0.18,0.06-0.18,0.18v9.76
			c0,0.12-0.04,0.22-0.13,0.3s-0.19,0.13-0.3,0.13H8.83c-0.12,0-0.22-0.04-0.3-0.13C8.45,44.3,8.4,44.2,8.4,44.08V19.92
			c0-0.12,0.04-0.22,0.13-0.3c0.08-0.08,0.18-0.13,0.3-0.13h7.22c1.31,0,2.48,0.32,3.5,0.95c1.02,0.63,1.82,1.52,2.38,2.66
			c0.56,1.14,0.84,2.46,0.84,3.93c0,1.41-0.27,2.65-0.8,3.72c-0.54,1.07-1.28,1.91-2.23,2.5c-0.05,0.02-0.08,0.05-0.11,0.09
			s-0.02,0.08,0,0.13l3.29,10.55l0.04,0.14c0,0.24-0.13,0.36-0.39,0.36h-4.29C18.01,44.51,17.84,44.4,17.77,44.16z M13.45,23.99
			v6.11c0,0.12,0.06,0.18,0.18,0.18h1.61c0.74,0,1.34-0.29,1.81-0.88c0.46-0.58,0.7-1.36,0.7-2.34c0-1-0.23-1.79-0.7-2.38
			c-0.46-0.58-1.07-0.88-1.81-0.88h-1.61C13.5,23.81,13.45,23.87,13.45,23.99z"/>
		<path d="M26.85,42.87c-1.31-1.29-1.97-3-1.97-5.15V26.28c0-2.15,0.66-3.86,1.97-5.15c1.31-1.29,3.06-1.93,5.26-1.93
			s3.95,0.64,5.27,1.93c1.32,1.29,1.98,3,1.98,5.15v11.44c0,2.15-0.66,3.86-1.98,5.15c-1.32,1.29-3.08,1.93-5.27,1.93
			C29.91,44.8,28.16,44.16,26.85,42.87z M33.72,39.78c0.4-0.46,0.61-1.08,0.61-1.84V26.06c0-0.76-0.2-1.38-0.61-1.84
			c-0.41-0.46-0.94-0.7-1.61-0.7c-0.67,0-1.2,0.23-1.59,0.7c-0.39,0.46-0.59,1.08-0.59,1.84v11.87c0,0.76,0.2,1.38,0.59,1.84
			s0.92,0.7,1.59,0.7C32.77,40.47,33.31,40.24,33.72,39.78z"/>
		<path d="M44.94,43.98c-1.05-0.55-1.86-1.32-2.43-2.31c-0.57-0.99-0.86-2.13-0.86-3.41v-1.04c0-0.12,0.04-0.22,0.13-0.3
			c0.08-0.08,0.18-0.13,0.3-0.13h4.11c0.12,0,0.22,0.04,0.3,0.13s0.13,0.19,0.13,0.3v0.79c0,0.74,0.19,1.34,0.57,1.79
			c0.38,0.45,0.86,0.68,1.43,0.68c0.57,0,1.05-0.21,1.43-0.64c0.38-0.43,0.57-0.99,0.57-1.68c0-0.72-0.24-1.33-0.72-1.84
			c-0.48-0.51-1.41-1.27-2.79-2.27c-1.19-0.86-2.16-1.62-2.9-2.29c-0.74-0.67-1.37-1.49-1.9-2.47c-0.52-0.98-0.79-2.11-0.79-3.4
			c0-2.03,0.63-3.65,1.89-4.86s2.93-1.82,5.01-1.82c2.1,0,3.78,0.63,5.06,1.89c1.27,1.26,1.91,2.92,1.91,4.97v0.86
			c0,0.12-0.04,0.22-0.13,0.3c-0.08,0.08-0.19,0.13-0.3,0.13h-4.11c-0.12,0-0.22-0.04-0.3-0.13c-0.08-0.08-0.13-0.18-0.13-0.3v-0.97
			c0-0.74-0.19-1.33-0.55-1.77c-0.37-0.44-0.85-0.66-1.45-0.66c-0.57,0-1.04,0.21-1.39,0.63c-0.36,0.42-0.54,1-0.54,1.73
			c0,0.72,0.23,1.35,0.68,1.9c0.45,0.55,1.35,1.31,2.68,2.29c1.48,1.1,2.59,1.98,3.34,2.66c0.75,0.68,1.33,1.43,1.75,2.25
			c0.42,0.82,0.63,1.81,0.63,2.95c0,2.1-0.64,3.77-1.93,5.01c-1.29,1.24-2.98,1.86-5.08,1.86C47.21,44.8,45.99,44.53,44.94,43.98z"
			/>
	</g>
</g>
</svg>
