<?xml version="1.0" encoding="utf-8"?>
<!-- Generator: Adobe Illustrator 27.6.1, SVG Export Plug-In . SVG Version: 6.00 Build 0)  -->
<svg version="1.1" id="Capa_3_copia" xmlns="http://www.w3.org/2000/svg" xmlns:xlink="http://www.w3.org/1999/xlink" x="0px"
	 y="0px" viewBox="0 0 64 64" style="enable-background:new 0 0 64 64;" xml:space="preserve">
<style type="text/css">
	.st0{fill:#FFFFFF;}
</style>
<g>
	<path class="st0" d="M4.95,11.7c0.76,0,1.48-0.38,1.9-1.01C9.29,7,13.48,4.57,18.22,4.57h27.55c4.74,0,8.93,2.43,11.38,6.11
		c0.42,0.63,1.14,1.01,1.9,1.01l0,0c1.83,0,2.92-2.04,1.9-3.56C57.69,3.23,52.11,0,45.78,0H18.22C11.89,0,6.31,3.23,3.05,8.13
		C2.03,9.66,3.12,11.7,4.95,11.7L4.95,11.7z"/>
	<path class="st0" d="M59.05,52.3c-0.76,0-1.48,0.38-1.9,1.01c-2.45,3.68-6.63,6.11-11.38,6.11H18.22c-4.74,0-8.93-2.43-11.38-6.11
		c-0.42-0.63-1.14-1.01-1.9-1.01l0,0c-1.83,0-2.92,2.04-1.9,3.56C6.31,60.77,11.89,64,18.22,64h27.55c6.33,0,11.91-3.23,15.18-8.13
		C61.97,54.34,60.88,52.3,59.05,52.3L59.05,52.3z"/>
	<g>
		<path class="st0" d="M18.67,36.68c0,0.52-0.02,1.23-0.07,2.13c-0.07,1.87-0.71,3.32-1.91,4.34c-1.21,1.03-2.81,1.54-4.82,1.54
			c-1.89,0-3.42-0.47-4.59-1.42c-1.17-0.95-1.86-2.35-2.07-4.22c-0.09-0.5-0.14-1.15-0.14-1.95L4.99,25.65
			c0-1.94,0.62-3.48,1.86-4.63s2.89-1.72,4.95-1.72c1.91,0,3.48,0.58,4.7,1.74c1.22,1.16,1.83,2.69,1.83,4.61v1.06
			c0,0.12-0.04,0.22-0.12,0.3s-0.18,0.12-0.3,0.12h-4.15c-0.12,0-0.22-0.04-0.3-0.12s-0.12-0.18-0.12-0.3v-0.78
			c0-0.64-0.15-1.17-0.46-1.59s-0.66-0.64-1.06-0.64c-0.52,0-0.95,0.21-1.28,0.62c-0.33,0.41-0.5,0.95-0.5,1.61v3.58
			c0,0.07,0.02,0.11,0.07,0.12c0.05,0.01,0.09-0.01,0.14-0.05c0.78-0.66,1.67-0.99,2.66-0.99c1.65,0,2.98,0.54,3.99,1.63
			c1,1.09,1.55,2.54,1.65,4.36C18.63,35.16,18.67,35.85,18.67,36.68z M13.6,36.33c0-0.64-0.05-1.37-0.14-2.2
			c-0.07-0.54-0.25-0.97-0.53-1.28c-0.28-0.31-0.65-0.46-1.1-0.46c-0.47,0-0.86,0.16-1.15,0.48c-0.3,0.32-0.48,0.76-0.55,1.33
			c-0.07,0.92-0.11,1.63-0.11,2.13c0,0.57,0.04,1.3,0.11,2.2c0.07,0.61,0.25,1.09,0.55,1.42c0.3,0.33,0.68,0.5,1.15,0.5
			c0.47,0,0.86-0.18,1.15-0.53c0.3-0.35,0.48-0.85,0.55-1.49C13.58,37.28,13.6,36.59,13.6,36.33z"/>
		<path class="st0" d="M22,42.83c-1.28-1.31-1.91-3.04-1.91-5.19V26.36c0-2.15,0.64-3.88,1.91-5.2c1.28-1.31,2.96-1.97,5.03-1.97
			c1.37,0,2.59,0.3,3.65,0.89s1.88,1.43,2.46,2.52c0.58,1.09,0.87,2.34,0.87,3.76v11.28c0,1.42-0.29,2.67-0.87,3.76
			c-0.58,1.09-1.4,1.93-2.46,2.52s-2.28,0.89-3.65,0.89C24.96,44.8,23.28,44.14,22,42.83z M28.47,39.8c0.37-0.47,0.55-1.1,0.55-1.88
			V26.08c0-0.78-0.18-1.41-0.55-1.88c-0.37-0.47-0.84-0.71-1.44-0.71c-0.59,0-1.06,0.24-1.42,0.71c-0.35,0.47-0.53,1.1-0.53,1.88
			v11.84c0,0.78,0.18,1.41,0.53,1.88s0.83,0.71,1.42,0.71S28.11,40.27,28.47,39.8z"/>
		<path class="st0" d="M37.6,42.83c-1.28-1.31-1.91-3.04-1.91-5.19V26.36c0-2.15,0.64-3.88,1.91-5.2c1.28-1.31,2.96-1.97,5.03-1.97
			c1.37,0,2.59,0.3,3.65,0.89s1.88,1.43,2.46,2.52c0.58,1.09,0.87,2.34,0.87,3.76v11.28c0,1.42-0.29,2.67-0.87,3.76
			c-0.58,1.09-1.4,1.93-2.46,2.52c-1.06,0.59-2.28,0.89-3.65,0.89C40.56,44.8,38.88,44.14,37.6,42.83z M44.07,39.8
			c0.37-0.47,0.55-1.1,0.55-1.88V26.08c0-0.78-0.18-1.41-0.55-1.88s-0.84-0.71-1.44-0.71c-0.59,0-1.06,0.24-1.42,0.71
			c-0.35,0.47-0.53,1.1-0.53,1.88v11.84c0,0.78,0.18,1.41,0.53,1.88s0.83,0.71,1.42,0.71C43.23,40.51,43.7,40.27,44.07,39.8z"/>
		<path class="st0" d="M54.3,19.59h4.29c0.12,0,0.22,0.04,0.3,0.12c0.08,0.08,0.12,0.18,0.12,0.3v23.97c0,0.12-0.04,0.22-0.12,0.3
			c-0.08,0.08-0.18,0.12-0.3,0.12h-4.15c-0.12,0-0.22-0.04-0.3-0.12c-0.08-0.08-0.12-0.18-0.12-0.3V24.62
			c0-0.09-0.06-0.14-0.18-0.14l-2.73,0.32h-0.07c-0.26,0-0.39-0.13-0.39-0.39l-0.11-3.05c0-0.24,0.11-0.4,0.32-0.5l2.91-1.17
			C53.95,19.62,54.13,19.59,54.3,19.59z"/>
	</g>
</g>
</svg>
