<?xml version="1.0" encoding="utf-8"?>
<!-- Generator: Adobe Illustrator 27.6.1, SVG Export Plug-In . SVG Version: 6.00 Build 0)  -->
<svg version="1.1" id="Capa_1" xmlns="http://www.w3.org/2000/svg" xmlns:xlink="http://www.w3.org/1999/xlink" x="0px" y="0px"
	 viewBox="0 0 16 16" style="enable-background:new 0 0 16 16;" xml:space="preserve">
<style type="text/css">
	.st0{fill:#FFFFFF;}
</style>
<path class="st0" d="M4.58,1C4.22,1,3.89,1.19,3.71,1.5l-3.43,6c-0.18,0.31-0.18,0.68,0,0.99l3.43,6C3.89,14.81,4.22,15,4.58,15
	h6.84c0.36,0,0.69-0.19,0.87-0.5l3.43-6c0.18-0.31,0.18-0.68,0-0.99l-3.43-6C12.11,1.19,11.78,1,11.42,1H4.58z M9.6,10.7
	c-1.43,0.84-3.27,0.36-4.11-1.07S5.13,6.36,6.56,5.52C6.57,5.51,6.59,5.51,6.6,5.5c1.44-0.82,3.27-0.32,4.09,1.13
	C11.5,8.05,11.01,9.87,9.6,10.7z"/>
</svg>
