<?xml version="1.0" encoding="utf-8"?>
<!-- Generator: Adobe Illustrator 27.6.1, SVG Export Plug-In . SVG Version: 6.00 Build 0)  -->
<svg version="1.1" id="Capa_1" xmlns="http://www.w3.org/2000/svg" xmlns:xlink="http://www.w3.org/1999/xlink" x="0px" y="0px"
	 viewBox="0 0 16 16" style="enable-background:new 0 0 16 16;" xml:space="preserve">
<style type="text/css">
	.st0{fill:#FFFFFF;}
</style>
<path class="st0" d="M1,0L0,1l2.2,3.08C2.39,4.34,2.69,4.5,3.02,4.5h0.07c0.27,0,0.52,0.11,0.71,0.29l2.67,2.67l-2.62,2.65
	c-1.59-0.47-3.26,0.44-3.73,2.03C0.04,12.43,0,12.71,0,13c0,1.66,1.35,3,3,3s3-1.35,3-3c0-0.29-0.04-0.57-0.12-0.84l2.65-2.62
	L9.5,10.5l-0.31,0.91c-0.12,0.36-0.03,0.76,0.24,1.02l3.27,3.27c0.39,0.39,1.02,0.39,1.41,0c0,0,0,0,0,0l1.59-1.59
	c0.39-0.39,0.39-1.02,0-1.41c0,0,0,0,0,0l-3.27-3.27c-0.27-0.27-0.66-0.36-1.02-0.24L10.5,9.5L9.54,8.54l2.68-2.64
	c1.6,0.43,3.25-0.52,3.68-2.13C15.97,3.52,16,3.26,16,3c0-0.27-0.03-0.53-0.1-0.78l-2.14,2.14L12,4l-0.36-1.76l2.14-2.14
	c-1.6-0.43-3.25,0.52-3.68,2.12c-0.14,0.51-0.14,1.05,0,1.56L7.46,6.46L4.79,3.79C4.61,3.61,4.5,3.35,4.5,3.09V3.01
	c0-0.32-0.16-0.63-0.42-0.81L1,0z M10.65,10.65c0.2-0.2,0.51-0.2,0.71,0c0,0,0,0,0,0l2.91,2.91c0.19,0.2,0.19,0.52-0.01,0.71
	c-0.19,0.19-0.5,0.19-0.69,0l-2.91-2.91C10.45,11.16,10.45,10.84,10.65,10.65C10.65,10.65,10.65,10.65,10.65,10.65z M3,11l0.47,0.24
	L4,11.27l0.29,0.44L4.73,12l0.03,0.53L5,13l-0.24,0.47L4.73,14l-0.45,0.29L4,14.73l-0.53,0.03L3,15l-0.47-0.24L2,14.73l-0.29-0.44
	L1.27,14l-0.03-0.53L1,13l0.24-0.47L1.27,12l0.45-0.29L2,11.27l0.53-0.03L3,11z"/>
</svg>
