<?xml version="1.0" encoding="utf-8"?>
<!-- Generator: Adobe Illustrator 27.6.1, SVG Export Plug-In . SVG Version: 6.00 Build 0)  -->
<svg version="1.1" id="Capa_1" xmlns="http://www.w3.org/2000/svg" xmlns:xlink="http://www.w3.org/1999/xlink" x="0px" y="0px"
	 viewBox="0 0 16 16" style="enable-background:new 0 0 16 16;" xml:space="preserve">
<style type="text/css">
	.st0{fill:#FFFFFF;}
</style>
<path class="st0" d="M2,0C0.9,0,0,0.9,0,2v12c0,1.1,0.9,2,2,2h12c1.1,0,2-0.9,2-2V2c0-1.1-0.9-2-2-2H2z M5.35,4.65L8,7.29l2.65-2.65
	c0.2-0.2,0.51-0.2,0.71,0s0.2,0.51,0,0.71L8.71,8l2.65,2.65c0.2,0.2,0.2,0.51,0,0.71s-0.51,0.2-0.71,0L8,8.71l-2.65,2.65
	c-0.2,0.2-0.51,0.2-0.71,0s-0.2-0.51,0-0.71L7.29,8L4.65,5.35c-0.2-0.2-0.2-0.51,0-0.71S5.16,4.45,5.35,4.65z"/>
</svg>
